<svg width="352" height="907" xmlns="http://www.w3.org/2000/svg" xmlns:xlink="http://www.w3.org/1999/xlink" xml:space="preserve" overflow="hidden"><defs><clipPath id="clip0"><rect x="931" y="1323" width="352" height="907"/></clipPath></defs><g clip-path="url(#clip0)" transform="translate(-931 -1323)"><path d="M0.0706558 49.3142 51.8678 0.691067 76 0 2.8712 68.0001C3.54564 60.6197-0.603786 56.6946 0.0706558 49.3142Z" fill="#AAAAAA" fill-rule="evenodd" transform="matrix(-1 0 0 1 1089 1414)"/><path d="M1122.07 1463.31 1173.19 1414.69 1197 1414 1124.83 1482C1125.5 1474.62 1121.4 1470.69 1122.07 1463.31Z" fill="#AAAAAA" fill-rule="evenodd"/><path d="M1006 1373.54C1020.44 1361.64 1019.19 1360.03 1035 1373.54L1035 1421.89C1021.24 1434.79 1021.13 1435.94 1006 1421.89L1006 1373.54Z" fill="#7B6F7A" fill-rule="evenodd"/><path d="M1176 1373.54C1190.44 1361.64 1189.19 1360.03 1205 1373.54L1205 1421.89C1191.24 1434.79 1191.13 1435.94 1176 1421.89L1176 1373.54Z" fill="#7B6F7A" fill-rule="evenodd"/><path d="M1243 1373.54C1257.94 1361.64 1256.65 1360.03 1273 1373.54L1273 1421.89C1258.76 1434.79 1258.65 1435.94 1243 1421.89L1243 1373.54Z" fill="#7B6F7A" fill-rule="evenodd"/><path d="M941 1373.54C955.942 1361.64 954.646 1360.03 971 1373.54L971 1421.89C956.764 1434.79 956.648 1435.94 941 1421.89L941 1373.54Z" fill="#7B6F7A" fill-rule="evenodd"/><path d="M1105 1341.69 1105 2230 1084 2230 1084 1341.69C1105.9 1312.82 1104.77 1321.06 1105 1341.69Z" fill="#AAAAAA" fill-rule="evenodd"/><path d="M1126 1342.12 1126 2230 1105 2230 1105 1342.12C1105.23 1319.45 1104.77 1313.95 1126 1342.12Z" fill="#5F555E" fill-rule="evenodd"/><rect x="1125" y="1601" width="16.9999" height="629" fill="#0084DE"/><rect x="1142" y="1601" width="16.0001" height="629" fill="#66CCF7"/><rect x="1051" y="1601" width="16.0001" height="629" fill="#0084DE"/><rect x="1067" y="1601" width="16.9999" height="629" fill="#66CCF7"/><rect x="931" y="1380" width="352" height="23.9998" fill="#AAAAAA"/><rect x="931" y="1391" width="352" height="23.9998" fill="#5F555E"/></g></svg>